<mxfile host="app.diagrams.net" modified="2022-05-19T02:23:29.275Z" agent="5.0 (Windows NT 10.0; Win64; x64) AppleWebKit/537.36 (KHTML, like Gecko) Chrome/101.0.4951.67 Safari/537.36" etag="BOX6hs4VzulNXZro0iL4" version="18.0.3" type="github">
  <diagram id="9jZ_ilr4nl_Mfddhommp" name="Page-1">
    <mxGraphModel dx="1038" dy="529" grid="1" gridSize="10" guides="1" tooltips="1" connect="1" arrows="1" fold="1" page="1" pageScale="1" pageWidth="827" pageHeight="1169" math="0" shadow="0">
      <root>
        <mxCell id="0" />
        <mxCell id="1" parent="0" />
        <mxCell id="dEdhykAcfewSuE6I8apB-1" value="&lt;font style=&quot;font-size: 18px;&quot;&gt;Iterator&lt;/font&gt;" style="rounded=0;whiteSpace=wrap;html=1;" vertex="1" parent="1">
          <mxGeometry x="30" y="210" width="100" height="50" as="geometry" />
        </mxCell>
        <mxCell id="dEdhykAcfewSuE6I8apB-2" value="" style="rounded=0;whiteSpace=wrap;html=1;fontSize=18;fillColor=#f5f5f5;fontColor=#333333;strokeColor=#666666;" vertex="1" parent="1">
          <mxGeometry x="160" y="100" width="340" height="310" as="geometry" />
        </mxCell>
        <mxCell id="dEdhykAcfewSuE6I8apB-4" value="&lt;font style=&quot;font-size: 18px;&quot;&gt;Iterator&lt;/font&gt;" style="rounded=0;whiteSpace=wrap;html=1;" vertex="1" parent="1">
          <mxGeometry x="295" y="20" width="100" height="50" as="geometry" />
        </mxCell>
        <mxCell id="dEdhykAcfewSuE6I8apB-5" value="Match" style="text;html=1;strokeColor=none;fillColor=none;align=center;verticalAlign=middle;whiteSpace=wrap;rounded=0;fontSize=18;" vertex="1" parent="1">
          <mxGeometry x="430" y="100" width="60" height="30" as="geometry" />
        </mxCell>
        <mxCell id="dEdhykAcfewSuE6I8apB-6" value="&lt;span style=&quot;font-size: 15px;&quot;&gt;e&lt;sub&gt;v&lt;/sub&gt;&lt;/span&gt;" style="rounded=1;whiteSpace=wrap;html=1;fontSize=18;fillColor=#fff2cc;strokeColor=#d6b656;" vertex="1" parent="1">
          <mxGeometry x="210" y="140" width="270" height="20" as="geometry" />
        </mxCell>
        <mxCell id="dEdhykAcfewSuE6I8apB-8" value="" style="endArrow=classic;html=1;rounded=0;fontSize=18;exitX=0.5;exitY=1;exitDx=0;exitDy=0;entryX=0.5;entryY=0;entryDx=0;entryDy=0;strokeColor=#000000;startArrow=none;startFill=0;strokeWidth=4;" edge="1" parent="1" source="dEdhykAcfewSuE6I8apB-4" target="dEdhykAcfewSuE6I8apB-6">
          <mxGeometry width="50" height="50" relative="1" as="geometry">
            <mxPoint x="480" y="70" as="sourcePoint" />
            <mxPoint x="530" y="20" as="targetPoint" />
          </mxGeometry>
        </mxCell>
        <mxCell id="dEdhykAcfewSuE6I8apB-10" value="p&lt;sub&gt;0&lt;/sub&gt;" style="rounded=1;whiteSpace=wrap;html=1;fontSize=18;fillColor=#f8cecc;strokeColor=#b85450;" vertex="1" parent="1">
          <mxGeometry x="210" y="181" width="30" height="110" as="geometry" />
        </mxCell>
        <mxCell id="dEdhykAcfewSuE6I8apB-11" value="" style="endArrow=classic;html=1;rounded=0;fontSize=18;strokeColor=#000000;strokeWidth=4;exitX=1;exitY=0.5;exitDx=0;exitDy=0;" edge="1" parent="1" source="dEdhykAcfewSuE6I8apB-1" target="dEdhykAcfewSuE6I8apB-10">
          <mxGeometry width="50" height="50" relative="1" as="geometry">
            <mxPoint x="90" y="330" as="sourcePoint" />
            <mxPoint x="140" y="280" as="targetPoint" />
          </mxGeometry>
        </mxCell>
        <mxCell id="dEdhykAcfewSuE6I8apB-19" style="edgeStyle=orthogonalEdgeStyle;rounded=0;orthogonalLoop=1;jettySize=auto;html=1;fontSize=18;startArrow=none;startFill=0;strokeColor=#000000;strokeWidth=4;" edge="1" parent="1" source="dEdhykAcfewSuE6I8apB-20" target="dEdhykAcfewSuE6I8apB-18">
          <mxGeometry relative="1" as="geometry" />
        </mxCell>
        <mxCell id="dEdhykAcfewSuE6I8apB-12" value="p&lt;span style=&quot;font-size: 15px;&quot;&gt;&lt;sub&gt;1&lt;/sub&gt;&lt;/span&gt;" style="rounded=1;whiteSpace=wrap;html=1;fontSize=18;fillColor=#f8cecc;strokeColor=#b85450;" vertex="1" parent="1">
          <mxGeometry x="290" y="181" width="30" height="110" as="geometry" />
        </mxCell>
        <mxCell id="dEdhykAcfewSuE6I8apB-13" value="" style="endArrow=classic;html=1;rounded=0;fontSize=18;strokeColor=#000000;strokeWidth=4;exitX=1;exitY=0.5;exitDx=0;exitDy=0;entryX=0;entryY=0.5;entryDx=0;entryDy=0;" edge="1" parent="1" source="dEdhykAcfewSuE6I8apB-10" target="dEdhykAcfewSuE6I8apB-12">
          <mxGeometry width="50" height="50" relative="1" as="geometry">
            <mxPoint x="150" y="246" as="sourcePoint" />
            <mxPoint x="220" y="246" as="targetPoint" />
          </mxGeometry>
        </mxCell>
        <mxCell id="dEdhykAcfewSuE6I8apB-14" value="e&lt;span style=&quot;font-size: 15px;&quot;&gt;&lt;sub&gt;h&lt;/sub&gt;&lt;/span&gt;" style="text;html=1;strokeColor=none;fillColor=none;align=center;verticalAlign=middle;whiteSpace=wrap;rounded=0;fontSize=18;" vertex="1" parent="1">
          <mxGeometry x="140" y="210" width="60" height="30" as="geometry" />
        </mxCell>
        <mxCell id="dEdhykAcfewSuE6I8apB-18" value="p&lt;span style=&quot;font-size: 15px;&quot;&gt;&lt;sub&gt;k&lt;/sub&gt;&lt;/span&gt;" style="rounded=1;whiteSpace=wrap;html=1;fontSize=18;fillColor=#f8cecc;strokeColor=#b85450;" vertex="1" parent="1">
          <mxGeometry x="440" y="181" width="30" height="110" as="geometry" />
        </mxCell>
        <mxCell id="dEdhykAcfewSuE6I8apB-20" value="...." style="text;html=1;strokeColor=none;fillColor=none;align=center;verticalAlign=middle;whiteSpace=wrap;rounded=0;fontSize=18;" vertex="1" parent="1">
          <mxGeometry x="340" y="220" width="60" height="30" as="geometry" />
        </mxCell>
        <mxCell id="dEdhykAcfewSuE6I8apB-21" value="" style="edgeStyle=orthogonalEdgeStyle;rounded=0;orthogonalLoop=1;jettySize=auto;html=1;fontSize=18;startArrow=none;startFill=0;strokeColor=#000000;strokeWidth=4;endArrow=none;" edge="1" parent="1" source="dEdhykAcfewSuE6I8apB-12" target="dEdhykAcfewSuE6I8apB-20">
          <mxGeometry relative="1" as="geometry">
            <mxPoint x="320" y="236" as="sourcePoint" />
            <mxPoint x="440" y="236" as="targetPoint" />
          </mxGeometry>
        </mxCell>
        <mxCell id="dEdhykAcfewSuE6I8apB-22" value="Arbiter" style="rounded=1;whiteSpace=wrap;html=1;fontSize=18;fillColor=#dae8fc;strokeColor=#6c8ebf;" vertex="1" parent="1">
          <mxGeometry x="190" y="340" width="120" height="60" as="geometry" />
        </mxCell>
        <mxCell id="dEdhykAcfewSuE6I8apB-23" value="Arbiter" style="rounded=1;whiteSpace=wrap;html=1;fontSize=18;fillColor=#dae8fc;strokeColor=#6c8ebf;" vertex="1" parent="1">
          <mxGeometry x="354" y="340" width="120" height="60" as="geometry" />
        </mxCell>
        <mxCell id="dEdhykAcfewSuE6I8apB-24" value="" style="endArrow=classic;html=1;rounded=0;fontSize=18;strokeColor=#000000;strokeWidth=2;entryX=0.5;entryY=0;entryDx=0;entryDy=0;" edge="1" parent="1" target="dEdhykAcfewSuE6I8apB-10">
          <mxGeometry width="50" height="50" relative="1" as="geometry">
            <mxPoint x="225" y="160" as="sourcePoint" />
            <mxPoint x="270" y="160" as="targetPoint" />
          </mxGeometry>
        </mxCell>
        <mxCell id="dEdhykAcfewSuE6I8apB-26" value="" style="endArrow=classic;html=1;rounded=0;fontSize=18;strokeColor=#000000;strokeWidth=2;entryX=0.5;entryY=0;entryDx=0;entryDy=0;" edge="1" parent="1" target="dEdhykAcfewSuE6I8apB-12">
          <mxGeometry width="50" height="50" relative="1" as="geometry">
            <mxPoint x="305" y="160" as="sourcePoint" />
            <mxPoint x="235" y="191" as="targetPoint" />
          </mxGeometry>
        </mxCell>
        <mxCell id="dEdhykAcfewSuE6I8apB-27" value="" style="endArrow=classic;html=1;rounded=0;fontSize=18;strokeColor=#000000;strokeWidth=2;entryX=0.5;entryY=0;entryDx=0;entryDy=0;" edge="1" parent="1" target="dEdhykAcfewSuE6I8apB-18">
          <mxGeometry width="50" height="50" relative="1" as="geometry">
            <mxPoint x="455" y="160" as="sourcePoint" />
            <mxPoint x="315" y="191" as="targetPoint" />
          </mxGeometry>
        </mxCell>
        <mxCell id="dEdhykAcfewSuE6I8apB-28" value="" style="endArrow=classic;html=1;rounded=0;fontSize=18;strokeColor=#6c8ebf;strokeWidth=2;exitX=0.5;exitY=1;exitDx=0;exitDy=0;entryX=0.25;entryY=0;entryDx=0;entryDy=0;fillColor=#dae8fc;" edge="1" parent="1" source="dEdhykAcfewSuE6I8apB-10" target="dEdhykAcfewSuE6I8apB-22">
          <mxGeometry width="50" height="50" relative="1" as="geometry">
            <mxPoint x="100" y="340" as="sourcePoint" />
            <mxPoint x="150" y="290" as="targetPoint" />
          </mxGeometry>
        </mxCell>
        <mxCell id="dEdhykAcfewSuE6I8apB-29" value="" style="endArrow=classic;html=1;rounded=0;fontSize=18;strokeColor=#6c8ebf;strokeWidth=2;exitX=0.5;exitY=1;exitDx=0;exitDy=0;entryX=0.25;entryY=0;entryDx=0;entryDy=0;fillColor=#dae8fc;" edge="1" parent="1" source="dEdhykAcfewSuE6I8apB-10" target="dEdhykAcfewSuE6I8apB-23">
          <mxGeometry width="50" height="50" relative="1" as="geometry">
            <mxPoint x="235" y="301" as="sourcePoint" />
            <mxPoint x="230" y="350" as="targetPoint" />
          </mxGeometry>
        </mxCell>
        <mxCell id="dEdhykAcfewSuE6I8apB-30" value="" style="endArrow=classic;html=1;rounded=0;fontSize=18;strokeColor=#6c8ebf;strokeWidth=2;exitX=0.5;exitY=1;exitDx=0;exitDy=0;entryX=0.5;entryY=0;entryDx=0;entryDy=0;fillColor=#dae8fc;" edge="1" parent="1" source="dEdhykAcfewSuE6I8apB-12" target="dEdhykAcfewSuE6I8apB-22">
          <mxGeometry width="50" height="50" relative="1" as="geometry">
            <mxPoint x="235" y="301" as="sourcePoint" />
            <mxPoint x="230" y="350" as="targetPoint" />
          </mxGeometry>
        </mxCell>
        <mxCell id="dEdhykAcfewSuE6I8apB-31" value="" style="endArrow=classic;html=1;rounded=0;fontSize=18;strokeColor=#6c8ebf;strokeWidth=2;exitX=0.5;exitY=1;exitDx=0;exitDy=0;entryX=0.5;entryY=0;entryDx=0;entryDy=0;fillColor=#dae8fc;" edge="1" parent="1" source="dEdhykAcfewSuE6I8apB-12" target="dEdhykAcfewSuE6I8apB-23">
          <mxGeometry width="50" height="50" relative="1" as="geometry">
            <mxPoint x="315" y="301" as="sourcePoint" />
            <mxPoint x="260" y="350" as="targetPoint" />
          </mxGeometry>
        </mxCell>
        <mxCell id="dEdhykAcfewSuE6I8apB-32" value="" style="endArrow=classic;html=1;rounded=0;fontSize=18;strokeColor=#6c8ebf;strokeWidth=2;exitX=0.5;exitY=1;exitDx=0;exitDy=0;entryX=0.75;entryY=0;entryDx=0;entryDy=0;fillColor=#dae8fc;" edge="1" parent="1" source="dEdhykAcfewSuE6I8apB-18" target="dEdhykAcfewSuE6I8apB-22">
          <mxGeometry width="50" height="50" relative="1" as="geometry">
            <mxPoint x="315" y="301" as="sourcePoint" />
            <mxPoint x="260" y="350" as="targetPoint" />
          </mxGeometry>
        </mxCell>
        <mxCell id="dEdhykAcfewSuE6I8apB-33" value="" style="endArrow=classic;html=1;rounded=0;fontSize=18;strokeColor=#6c8ebf;strokeWidth=2;exitX=0.5;exitY=1;exitDx=0;exitDy=0;entryX=0.75;entryY=0;entryDx=0;entryDy=0;fillColor=#dae8fc;" edge="1" parent="1" source="dEdhykAcfewSuE6I8apB-18" target="dEdhykAcfewSuE6I8apB-23">
          <mxGeometry width="50" height="50" relative="1" as="geometry">
            <mxPoint x="465" y="301" as="sourcePoint" />
            <mxPoint x="290" y="350" as="targetPoint" />
          </mxGeometry>
        </mxCell>
        <mxCell id="dEdhykAcfewSuE6I8apB-35" value="" style="endArrow=classic;html=1;rounded=0;fontSize=18;strokeColor=#6c8ebf;strokeWidth=4;exitX=0.5;exitY=1;exitDx=0;exitDy=0;fillColor=#dae8fc;" edge="1" parent="1" source="dEdhykAcfewSuE6I8apB-22">
          <mxGeometry width="50" height="50" relative="1" as="geometry">
            <mxPoint x="240" y="470" as="sourcePoint" />
            <mxPoint x="250" y="450" as="targetPoint" />
          </mxGeometry>
        </mxCell>
        <mxCell id="dEdhykAcfewSuE6I8apB-36" value="" style="endArrow=classic;html=1;rounded=0;fontSize=18;strokeColor=#6c8ebf;strokeWidth=4;exitX=0.5;exitY=1;exitDx=0;exitDy=0;fillColor=#dae8fc;" edge="1" parent="1" source="dEdhykAcfewSuE6I8apB-23">
          <mxGeometry width="50" height="50" relative="1" as="geometry">
            <mxPoint x="260" y="410" as="sourcePoint" />
            <mxPoint x="414" y="450" as="targetPoint" />
          </mxGeometry>
        </mxCell>
        <mxCell id="dEdhykAcfewSuE6I8apB-37" value="" style="rounded=0;whiteSpace=wrap;html=1;fontSize=18;fillColor=#f5f5f5;fontColor=#333333;strokeColor=#666666;" vertex="1" parent="1">
          <mxGeometry x="570" y="101" width="340" height="310" as="geometry" />
        </mxCell>
        <mxCell id="dEdhykAcfewSuE6I8apB-38" value="&lt;font style=&quot;font-size: 18px;&quot;&gt;Iterator&lt;/font&gt;" style="rounded=0;whiteSpace=wrap;html=1;" vertex="1" parent="1">
          <mxGeometry x="705" y="21" width="100" height="50" as="geometry" />
        </mxCell>
        <mxCell id="dEdhykAcfewSuE6I8apB-39" value="Match" style="text;html=1;strokeColor=none;fillColor=none;align=center;verticalAlign=middle;whiteSpace=wrap;rounded=0;fontSize=18;" vertex="1" parent="1">
          <mxGeometry x="840" y="101" width="60" height="30" as="geometry" />
        </mxCell>
        <mxCell id="dEdhykAcfewSuE6I8apB-40" value="&lt;span style=&quot;font-size: 15px;&quot;&gt;e&lt;sub&gt;v&lt;/sub&gt;&lt;/span&gt;" style="rounded=1;whiteSpace=wrap;html=1;fontSize=18;fillColor=#fff2cc;strokeColor=#d6b656;" vertex="1" parent="1">
          <mxGeometry x="620" y="141" width="270" height="20" as="geometry" />
        </mxCell>
        <mxCell id="dEdhykAcfewSuE6I8apB-41" value="" style="endArrow=classic;html=1;rounded=0;fontSize=18;exitX=0.5;exitY=1;exitDx=0;exitDy=0;entryX=0.5;entryY=0;entryDx=0;entryDy=0;strokeColor=#000000;startArrow=none;startFill=0;strokeWidth=4;" edge="1" parent="1" source="dEdhykAcfewSuE6I8apB-38" target="dEdhykAcfewSuE6I8apB-40">
          <mxGeometry width="50" height="50" relative="1" as="geometry">
            <mxPoint x="890" y="71" as="sourcePoint" />
            <mxPoint x="940" y="21" as="targetPoint" />
          </mxGeometry>
        </mxCell>
        <mxCell id="dEdhykAcfewSuE6I8apB-42" value="p&lt;sub&gt;0&lt;/sub&gt;" style="rounded=1;whiteSpace=wrap;html=1;fontSize=18;fillColor=#f8cecc;strokeColor=#b85450;" vertex="1" parent="1">
          <mxGeometry x="620" y="182" width="30" height="110" as="geometry" />
        </mxCell>
        <mxCell id="dEdhykAcfewSuE6I8apB-43" value="" style="endArrow=classic;html=1;rounded=0;fontSize=18;strokeColor=#000000;strokeWidth=4;exitX=1;exitY=0.5;exitDx=0;exitDy=0;" edge="1" parent="1" target="dEdhykAcfewSuE6I8apB-42" source="dEdhykAcfewSuE6I8apB-18">
          <mxGeometry width="50" height="50" relative="1" as="geometry">
            <mxPoint x="540" y="236" as="sourcePoint" />
            <mxPoint x="550" y="281" as="targetPoint" />
          </mxGeometry>
        </mxCell>
        <mxCell id="dEdhykAcfewSuE6I8apB-44" style="edgeStyle=orthogonalEdgeStyle;rounded=0;orthogonalLoop=1;jettySize=auto;html=1;fontSize=18;startArrow=none;startFill=0;strokeColor=#000000;strokeWidth=4;" edge="1" parent="1" source="dEdhykAcfewSuE6I8apB-49" target="dEdhykAcfewSuE6I8apB-48">
          <mxGeometry relative="1" as="geometry" />
        </mxCell>
        <mxCell id="dEdhykAcfewSuE6I8apB-45" value="p&lt;span style=&quot;font-size: 15px;&quot;&gt;&lt;sub&gt;1&lt;/sub&gt;&lt;/span&gt;" style="rounded=1;whiteSpace=wrap;html=1;fontSize=18;fillColor=#f8cecc;strokeColor=#b85450;" vertex="1" parent="1">
          <mxGeometry x="700" y="182" width="30" height="110" as="geometry" />
        </mxCell>
        <mxCell id="dEdhykAcfewSuE6I8apB-46" value="" style="endArrow=classic;html=1;rounded=0;fontSize=18;strokeColor=#000000;strokeWidth=4;exitX=1;exitY=0.5;exitDx=0;exitDy=0;entryX=0;entryY=0.5;entryDx=0;entryDy=0;" edge="1" parent="1" source="dEdhykAcfewSuE6I8apB-42" target="dEdhykAcfewSuE6I8apB-45">
          <mxGeometry width="50" height="50" relative="1" as="geometry">
            <mxPoint x="560" y="247" as="sourcePoint" />
            <mxPoint x="630" y="247" as="targetPoint" />
          </mxGeometry>
        </mxCell>
        <mxCell id="dEdhykAcfewSuE6I8apB-47" value="e&lt;span style=&quot;font-size: 15px;&quot;&gt;&lt;sub&gt;h&lt;/sub&gt;&lt;/span&gt;" style="text;html=1;strokeColor=none;fillColor=none;align=center;verticalAlign=middle;whiteSpace=wrap;rounded=0;fontSize=18;" vertex="1" parent="1">
          <mxGeometry x="510" y="210" width="60" height="30" as="geometry" />
        </mxCell>
        <mxCell id="dEdhykAcfewSuE6I8apB-65" style="edgeStyle=orthogonalEdgeStyle;rounded=0;orthogonalLoop=1;jettySize=auto;html=1;fontSize=18;startArrow=none;startFill=0;strokeColor=#000000;strokeWidth=4;" edge="1" parent="1" source="dEdhykAcfewSuE6I8apB-48">
          <mxGeometry relative="1" as="geometry">
            <mxPoint x="940" y="237" as="targetPoint" />
          </mxGeometry>
        </mxCell>
        <mxCell id="dEdhykAcfewSuE6I8apB-48" value="p&lt;span style=&quot;font-size: 15px;&quot;&gt;&lt;sub&gt;k&lt;/sub&gt;&lt;/span&gt;" style="rounded=1;whiteSpace=wrap;html=1;fontSize=18;fillColor=#f8cecc;strokeColor=#b85450;" vertex="1" parent="1">
          <mxGeometry x="850" y="182" width="30" height="110" as="geometry" />
        </mxCell>
        <mxCell id="dEdhykAcfewSuE6I8apB-49" value="...." style="text;html=1;strokeColor=none;fillColor=none;align=center;verticalAlign=middle;whiteSpace=wrap;rounded=0;fontSize=18;" vertex="1" parent="1">
          <mxGeometry x="750" y="221" width="60" height="30" as="geometry" />
        </mxCell>
        <mxCell id="dEdhykAcfewSuE6I8apB-50" value="" style="edgeStyle=orthogonalEdgeStyle;rounded=0;orthogonalLoop=1;jettySize=auto;html=1;fontSize=18;startArrow=none;startFill=0;strokeColor=#000000;strokeWidth=4;endArrow=none;" edge="1" parent="1" source="dEdhykAcfewSuE6I8apB-45" target="dEdhykAcfewSuE6I8apB-49">
          <mxGeometry relative="1" as="geometry">
            <mxPoint x="730" y="237" as="sourcePoint" />
            <mxPoint x="850" y="237" as="targetPoint" />
          </mxGeometry>
        </mxCell>
        <mxCell id="dEdhykAcfewSuE6I8apB-51" value="Arbiter" style="rounded=1;whiteSpace=wrap;html=1;fontSize=18;fillColor=#dae8fc;strokeColor=#6c8ebf;" vertex="1" parent="1">
          <mxGeometry x="600" y="341" width="120" height="60" as="geometry" />
        </mxCell>
        <mxCell id="dEdhykAcfewSuE6I8apB-52" value="Arbiter" style="rounded=1;whiteSpace=wrap;html=1;fontSize=18;fillColor=#dae8fc;strokeColor=#6c8ebf;" vertex="1" parent="1">
          <mxGeometry x="764" y="341" width="120" height="60" as="geometry" />
        </mxCell>
        <mxCell id="dEdhykAcfewSuE6I8apB-53" value="" style="endArrow=classic;html=1;rounded=0;fontSize=18;strokeColor=#000000;strokeWidth=2;entryX=0.5;entryY=0;entryDx=0;entryDy=0;" edge="1" parent="1" target="dEdhykAcfewSuE6I8apB-42">
          <mxGeometry width="50" height="50" relative="1" as="geometry">
            <mxPoint x="635" y="161" as="sourcePoint" />
            <mxPoint x="680" y="161" as="targetPoint" />
          </mxGeometry>
        </mxCell>
        <mxCell id="dEdhykAcfewSuE6I8apB-54" value="" style="endArrow=classic;html=1;rounded=0;fontSize=18;strokeColor=#000000;strokeWidth=2;entryX=0.5;entryY=0;entryDx=0;entryDy=0;" edge="1" parent="1" target="dEdhykAcfewSuE6I8apB-45">
          <mxGeometry width="50" height="50" relative="1" as="geometry">
            <mxPoint x="715" y="161" as="sourcePoint" />
            <mxPoint x="645" y="192" as="targetPoint" />
          </mxGeometry>
        </mxCell>
        <mxCell id="dEdhykAcfewSuE6I8apB-55" value="" style="endArrow=classic;html=1;rounded=0;fontSize=18;strokeColor=#000000;strokeWidth=2;entryX=0.5;entryY=0;entryDx=0;entryDy=0;" edge="1" parent="1" target="dEdhykAcfewSuE6I8apB-48">
          <mxGeometry width="50" height="50" relative="1" as="geometry">
            <mxPoint x="865" y="161" as="sourcePoint" />
            <mxPoint x="725" y="192" as="targetPoint" />
          </mxGeometry>
        </mxCell>
        <mxCell id="dEdhykAcfewSuE6I8apB-56" value="" style="endArrow=classic;html=1;rounded=0;fontSize=18;strokeColor=#6c8ebf;strokeWidth=2;exitX=0.5;exitY=1;exitDx=0;exitDy=0;entryX=0.25;entryY=0;entryDx=0;entryDy=0;fillColor=#dae8fc;" edge="1" parent="1" source="dEdhykAcfewSuE6I8apB-42" target="dEdhykAcfewSuE6I8apB-51">
          <mxGeometry width="50" height="50" relative="1" as="geometry">
            <mxPoint x="510" y="341" as="sourcePoint" />
            <mxPoint x="560" y="291" as="targetPoint" />
          </mxGeometry>
        </mxCell>
        <mxCell id="dEdhykAcfewSuE6I8apB-57" value="" style="endArrow=classic;html=1;rounded=0;fontSize=18;strokeColor=#6c8ebf;strokeWidth=2;exitX=0.5;exitY=1;exitDx=0;exitDy=0;entryX=0.25;entryY=0;entryDx=0;entryDy=0;fillColor=#dae8fc;" edge="1" parent="1" source="dEdhykAcfewSuE6I8apB-42" target="dEdhykAcfewSuE6I8apB-52">
          <mxGeometry width="50" height="50" relative="1" as="geometry">
            <mxPoint x="645" y="302" as="sourcePoint" />
            <mxPoint x="640" y="351" as="targetPoint" />
          </mxGeometry>
        </mxCell>
        <mxCell id="dEdhykAcfewSuE6I8apB-58" value="" style="endArrow=classic;html=1;rounded=0;fontSize=18;strokeColor=#6c8ebf;strokeWidth=2;exitX=0.5;exitY=1;exitDx=0;exitDy=0;entryX=0.5;entryY=0;entryDx=0;entryDy=0;fillColor=#dae8fc;" edge="1" parent="1" source="dEdhykAcfewSuE6I8apB-45" target="dEdhykAcfewSuE6I8apB-51">
          <mxGeometry width="50" height="50" relative="1" as="geometry">
            <mxPoint x="645" y="302" as="sourcePoint" />
            <mxPoint x="640" y="351" as="targetPoint" />
          </mxGeometry>
        </mxCell>
        <mxCell id="dEdhykAcfewSuE6I8apB-59" value="" style="endArrow=classic;html=1;rounded=0;fontSize=18;strokeColor=#6c8ebf;strokeWidth=2;exitX=0.5;exitY=1;exitDx=0;exitDy=0;entryX=0.5;entryY=0;entryDx=0;entryDy=0;fillColor=#dae8fc;" edge="1" parent="1" source="dEdhykAcfewSuE6I8apB-45" target="dEdhykAcfewSuE6I8apB-52">
          <mxGeometry width="50" height="50" relative="1" as="geometry">
            <mxPoint x="725" y="302" as="sourcePoint" />
            <mxPoint x="670" y="351" as="targetPoint" />
          </mxGeometry>
        </mxCell>
        <mxCell id="dEdhykAcfewSuE6I8apB-60" value="" style="endArrow=classic;html=1;rounded=0;fontSize=18;strokeColor=#6c8ebf;strokeWidth=2;exitX=0.5;exitY=1;exitDx=0;exitDy=0;entryX=0.75;entryY=0;entryDx=0;entryDy=0;fillColor=#dae8fc;" edge="1" parent="1" source="dEdhykAcfewSuE6I8apB-48" target="dEdhykAcfewSuE6I8apB-51">
          <mxGeometry width="50" height="50" relative="1" as="geometry">
            <mxPoint x="725" y="302" as="sourcePoint" />
            <mxPoint x="670" y="351" as="targetPoint" />
          </mxGeometry>
        </mxCell>
        <mxCell id="dEdhykAcfewSuE6I8apB-61" value="" style="endArrow=classic;html=1;rounded=0;fontSize=18;strokeColor=#6c8ebf;strokeWidth=2;exitX=0.5;exitY=1;exitDx=0;exitDy=0;entryX=0.75;entryY=0;entryDx=0;entryDy=0;fillColor=#dae8fc;" edge="1" parent="1" source="dEdhykAcfewSuE6I8apB-48" target="dEdhykAcfewSuE6I8apB-52">
          <mxGeometry width="50" height="50" relative="1" as="geometry">
            <mxPoint x="875" y="302" as="sourcePoint" />
            <mxPoint x="700" y="351" as="targetPoint" />
          </mxGeometry>
        </mxCell>
        <mxCell id="dEdhykAcfewSuE6I8apB-62" value="" style="endArrow=classic;html=1;rounded=0;fontSize=18;strokeColor=#6c8ebf;strokeWidth=4;exitX=0.5;exitY=1;exitDx=0;exitDy=0;fillColor=#dae8fc;" edge="1" parent="1" source="dEdhykAcfewSuE6I8apB-51">
          <mxGeometry width="50" height="50" relative="1" as="geometry">
            <mxPoint x="650" y="471" as="sourcePoint" />
            <mxPoint x="660" y="451" as="targetPoint" />
          </mxGeometry>
        </mxCell>
        <mxCell id="dEdhykAcfewSuE6I8apB-63" value="" style="endArrow=classic;html=1;rounded=0;fontSize=18;strokeColor=#6c8ebf;strokeWidth=4;exitX=0.5;exitY=1;exitDx=0;exitDy=0;fillColor=#dae8fc;" edge="1" parent="1" source="dEdhykAcfewSuE6I8apB-52">
          <mxGeometry width="50" height="50" relative="1" as="geometry">
            <mxPoint x="670" y="411" as="sourcePoint" />
            <mxPoint x="824" y="451" as="targetPoint" />
          </mxGeometry>
        </mxCell>
      </root>
    </mxGraphModel>
  </diagram>
</mxfile>
